<?xml version="1.0" standalone="no"?>
<!DOCTYPE svg PUBLIC "-//W3C//DTD SVG 20010904//EN"
 "http://www.w3.org/TR/2001/REC-SVG-20010904/DTD/svg10.dtd">
<svg version="1.0" xmlns="http://www.w3.org/2000/svg"
 width="800.000000pt" height="800.000000pt" viewBox="0 0 800.000000 800.000000"
 preserveAspectRatio="xMidYMid meet">

<g transform="translate(0.000000,800.000000) scale(0.100000,-0.100000)"
fill="#000000" stroke="none">
<path d="M2426 4778 c-6 -17 -37 -261 -33 -264 1 -2 54 -14 117 -29 456 -102
889 -347 1213 -684 l95 -99 83 85 c92 92 219 203 316 273 34 25 62 48 62 52 1
12 -101 90 -226 173 -441 295 -906 445 -1545 500 -61 5 -79 4 -82 -7z"/>
<path d="M5530 4442 l-35 -5 35 -8 c24 -5 14 -6 -30 -3 -49 3 -61 2 -50 -6 12
-9 11 -10 -5 -6 -33 9 -377 -83 -391 -105 -3 -5 -10 -7 -15 -4 -5 3 -23 -1
-41 -9 -18 -8 -58 -25 -88 -36 -110 -42 -170 -73 -163 -83 3 -6 1 -7 -5 -3
-14 8 -134 -53 -127 -64 3 -5 0 -12 -6 -16 -8 -4 -9 -3 -5 4 11 18 -1 15 -50
-14 -24 -14 -41 -31 -37 -36 3 -7 1 -8 -6 -4 -13 9 -171 -91 -236 -150 -22
-19 -34 -32 -26 -28 10 5 12 3 7 -5 -5 -7 -10 -10 -13 -7 -10 10 -44 -15 -37
-26 4 -6 3 -8 -3 -5 -14 9 -95 -62 -87 -75 5 -7 2 -8 -6 -3 -22 14 -347 -325
-333 -348 3 -6 1 -7 -5 -3 -11 7 -38 -32 -34 -47 1 -5 -2 -6 -7 -3 -13 8 -83
-92 -75 -106 4 -6 3 -8 -4 -4 -9 5 -52 -42 -52 -58 0 -3 168 -6 374 -6 l374 0
32 40 c18 22 28 45 24 51 -4 7 -3 9 3 6 6 -4 36 25 67 63 58 72 69 93 39 69
-16 -13 -17 -12 -5 3 8 10 19 16 25 15 7 -1 11 4 10 10 -2 7 2 12 8 10 6 -1
22 14 36 33 l26 35 -26 -27 c-22 -24 -26 -25 -24 -9 1 11 4 18 8 15 4 -2 12 3
19 11 7 8 15 13 19 10 4 -2 61 51 127 117 65 67 110 115 99 107 -18 -13 -19
-13 -7 3 8 9 19 15 25 13 7 -2 37 19 67 47 30 28 46 45 35 37 -15 -10 -15 -7
4 14 25 28 43 38 21 12 -18 -21 -3 -19 30 5 18 13 27 27 25 39 -2 10 3 18 11
18 10 0 11 -4 3 -14 -19 -22 1 -15 47 19 45 32 55 45 28 34 -9 -3 -12 -2 -9 5
4 6 13 8 21 5 7 -3 46 13 85 36 53 30 67 43 57 50 -10 7 -9 8 5 4 22 -7 88 24
80 37 -3 6 -1 7 4 4 6 -4 34 4 63 17 31 14 46 26 38 30 -7 3 -3 3 8 1 12 -3
28 0 36 8 7 7 19 12 27 9 9 -3 11 0 6 8 -5 9 -2 10 15 5 17 -5 21 -4 15 5 -5
9 -4 11 4 6 23 -15 51 4 51 35 0 17 -4 28 -9 25 -5 -4 -7 21 -5 57 3 39 1 57
-5 48 -6 -9 -7 4 -4 33 5 40 3 46 -13 46 -16 0 -17 2 -4 10 17 11 5 11 -60 2z
m-237 -79 c-7 -2 -19 -2 -25 0 -7 3 -2 5 12 5 14 0 19 -2 13 -5z m324 -159
c-3 -3 -12 -4 -19 -1 -8 3 -5 6 6 6 11 1 17 -2 13 -5z m-387 -158 c0 -2 -7 -7
-16 -10 -8 -3 -12 -2 -9 4 6 10 25 14 25 6z m6 -21 c-11 -8 -25 -15 -30 -15
-6 1 0 7 14 15 32 19 40 18 16 0z m-335 -212 c13 -16 12 -17 -3 -4 -10 7 -18
15 -18 17 0 8 8 3 21 -13z m-741 -37 c0 -2 -8 -10 -17 -17 -16 -13 -17 -12 -4
4 13 16 21 21 21 13z m518 -192 c-12 -12 -17 -13 -23 -3 -5 8 -4 10 4 5 6 -4
14 0 17 9 4 9 9 13 12 10 3 -3 -1 -13 -10 -21z"/>
<path d="M2366 4293 c-21 -159 -56 -551 -56 -619 0 -186 107 -361 271 -444
100 -51 176 -60 509 -60 l300 0 28 40 c15 22 82 114 150 204 67 91 122 169
122 175 0 6 -53 64 -117 129 -112 111 -278 244 -406 326 -120 76 -359 186
-507 234 -86 28 -228 62 -262 62 -24 0 -27 -4 -32 -47z"/>
<path d="M5612 4000 c-7 -11 -20 -20 -30 -20 -13 1 -11 4 8 16 34 21 8 12 -77
-26 -40 -18 -70 -36 -68 -41 7 -11 -33 -32 -45 -24 -17 10 -34 -6 -19 -17 10
-6 7 -7 -9 -3 -21 6 -53 -13 -259 -153 -36 -24 -45 -39 -13 -22 14 7 20 7 20
0 0 -9 -21 -15 -43 -11 -7 1 -11 -2 -142 -116 -78 -68 -234 -233 -220 -233 3
0 -7 -12 -24 -26 -17 -14 -31 -32 -31 -40 0 -7 -9 -18 -20 -24 -11 -6 -20 -16
-20 -22 0 -6 7 -5 18 3 15 13 16 12 3 -3 -7 -10 -17 -16 -21 -13 -15 9 -23
-17 -9 -27 11 -8 10 -9 -3 -5 -9 3 -22 0 -28 -8 -9 -11 40 -13 297 -13 169 -1
331 3 358 7 28 4 -42 5 -155 3 -113 -3 -203 -2 -200 1 3 3 107 7 233 10 125 2
230 7 234 11 4 3 1 12 -5 18 -7 7 -12 17 -12 22 0 6 5 4 10 -4 8 -12 12 -12
18 -2 10 15 63 44 69 38 2 -2 -12 -13 -32 -24 -32 -20 -47 -42 -27 -42 31 0
183 114 204 153 18 35 0 29 -25 -8 l-24 -36 2 41 c2 42 14 65 22 43 8 -21 25
-15 18 6 -3 11 -1 22 4 26 6 3 9 0 6 -7 -3 -7 0 -20 5 -28 9 -13 13 -11 30 10
11 14 17 31 15 38 -3 6 -8 20 -11 30 -5 16 -5 16 9 0 13 -16 15 -16 26 9 10
21 9 29 -2 40 -12 13 -15 12 -20 -1 -4 -10 -1 -16 8 -16 9 0 12 -6 8 -16 -9
-25 -37 8 -28 35 7 22 35 29 35 9 0 -9 3 -8 13 1 10 11 10 14 0 18 -16 6 -17
30 -1 39 8 5 9 2 5 -9 -3 -10 -3 -17 2 -17 10 0 5 116 -9 210 -18 122 -21 182
-9 175 7 -5 9 4 7 26 -4 39 -27 49 -46 19z m38 -10 c0 -11 -2 -20 -4 -20 -2 0
-6 9 -9 20 -3 11 -1 20 4 20 5 0 9 -9 9 -20z m-126 -41 c-4 -8 1 -9 17 -4 19
5 21 4 9 -4 -12 -9 -13 -11 -1 -11 8 0 12 -3 9 -6 -10 -9 -49 16 -43 27 4 5 8
9 11 9 3 0 2 -5 -2 -11z m103 -61 c-3 -7 -5 -2 -5 12 0 14 2 19 5 13 2 -7 2
-19 0 -25z m-197 -3 c-7 -9 -15 -13 -19 -10 -3 3 1 10 9 15 21 14 24 12 10 -5z
m-90 -20 c0 -2 -10 -9 -22 -15 -22 -11 -22 -10 -4 4 21 17 26 19 26 11z m37
-11 c-3 -3 -12 -4 -19 -1 -8 3 -5 6 6 6 11 1 17 -2 13 -5z m-102 -74 c3 -6 -1
-7 -9 -4 -18 7 -21 14 -7 14 6 0 13 -4 16 -10z m362 -12 c-3 -8 -6 -5 -6 6 -1
11 2 17 5 13 3 -3 4 -12 1 -19z m-432 2 c-3 -5 -12 -10 -18 -10 -7 0 -6 4 3
10 19 12 23 12 15 0z m-55 -44 c0 -3 -4 -8 -10 -11 -5 -3 -10 -1 -10 4 0 6 5
11 10 11 6 0 10 -2 10 -4z m-133 -94 c-10 -10 -14 -22 -10 -27 5 -4 2 -5 -5
-1 -11 6 -10 12 4 27 9 10 19 19 22 19 3 0 -2 -8 -11 -18z m20 -17 c0 -8 -4
-12 -9 -9 -5 3 -6 10 -3 15 9 13 12 11 12 -6z m-82 -54 c1 -16 -2 -28 -6 -25
-4 2 -9 1 -12 -3 -2 -5 -2 -2 0 6 2 8 -2 11 -11 8 -10 -4 -13 -1 -9 8 3 8 9
13 13 10 4 -3 10 2 14 10 8 22 11 18 11 -14z m-79 -56 c-3 -21 -47 -65 -58
-59 -6 4 5 21 23 40 38 39 38 39 35 19z m730 -81 c-4 -9 -9 -15 -11 -12 -3 3
-3 13 1 22 4 9 9 15 11 12 3 -3 3 -13 -1 -22z m-811 -36 c5 4 5 1 1 -6 -6 -10
-11 -10 -22 -1 -11 9 -14 8 -14 -3 0 -8 -7 -15 -15 -15 -13 0 -13 3 1 19 12
12 21 15 29 8 6 -5 16 -6 20 -2z m675 -48 c0 -5 -5 -10 -11 -10 -5 0 -7 5 -4
10 3 6 8 10 11 10 2 0 4 -4 4 -10z m40 -20 c0 -5 -7 -10 -15 -10 -8 0 -15 -6
-15 -14 0 -7 -12 -21 -26 -31 l-27 -17 27 35 c23 30 35 40 54 46 1 1 2 -3 2
-9z m-91 -74 c-2 -2 -15 -9 -29 -15 -24 -11 -24 -11 -6 3 16 13 49 24 35 12z
m-99 -36 c0 -5 -4 -10 -10 -10 -5 0 -10 5 -10 10 0 6 5 10 10 10 6 0 10 -4 10
-10z m-537 -27 c-13 -2 -33 -2 -45 0 -13 2 -3 4 22 4 25 0 35 -2 23 -4z"/>
<path d="M4839 3473 l-24 -28 28 24 c25 23 32 31 24 31 -2 0 -14 -12 -28 -27z"/>
<path d="M5660 3936 c-3 -3 -2 -40 3 -83 5 -43 12 -114 16 -158 l8 -80 1 65
c1 72 -20 265 -28 256z"/>
<path d="M5405 3920 c-3 -5 -2 -10 4 -10 5 0 13 5 16 10 3 6 2 10 -4 10 -5 0
-13 -4 -16 -10z"/>
<path d="M5530 3380 c0 -5 5 -10 10 -10 6 0 10 5 10 10 0 6 -4 10 -10 10 -5 0
-10 -4 -10 -10z"/>
<path d="M7107 2823 c-4 -3 -7 -206 -7 -450 l0 -443 80 0 80 0 0 450 0 450
-73 0 c-41 0 -77 -3 -80 -7z"/>
<path d="M704 2355 l1 -425 83 0 82 0 0 180 0 180 185 0 185 0 0 -180 0 -180
85 0 85 0 0 425 0 425 -85 0 -85 0 -2 -170 -3 -171 -183 -2 -182 -2 0 173 0
172 -83 0 -84 0 1 -425z"/>
<path d="M1696 2553 c-64 -22 -120 -76 -137 -131 -6 -23 -10 -44 -8 -46 2 -2
35 -6 72 -9 58 -5 69 -4 74 11 3 9 17 29 31 45 21 22 34 27 75 27 26 0 57 -5
68 -10 26 -14 49 -62 49 -103 l0 -34 -113 -5 c-99 -4 -121 -8 -171 -32 -38
-19 -66 -41 -83 -67 -23 -34 -25 -46 -21 -113 3 -67 7 -79 33 -107 69 -73 187
-91 283 -43 29 14 57 35 63 45 15 30 29 22 29 -16 l0 -35 70 0 70 0 0 205 c0
295 -15 345 -123 399 -75 37 -185 45 -261 19z m229 -400 c-3 -27 -13 -57 -20
-69 -20 -30 -76 -54 -129 -54 -76 0 -118 60 -85 121 17 33 67 48 158 49 l83 0
-7 -47z"/>
<path d="M2455 2546 c-29 -15 -60 -41 -75 -63 l-25 -37 -3 58 -3 57 -72 -3
-72 -3 -3 -312 -3 -313 80 0 79 0 4 183 c3 177 4 183 30 228 32 54 81 79 157
79 l49 0 -2 73 -1 72 -45 3 c-32 2 -59 -4 -95 -22z"/>
<path d="M2934 2559 c-17 -5 -49 -27 -72 -50 l-42 -41 0 46 0 46 -75 0 -75 0
0 -315 0 -315 80 0 80 0 0 205 c0 183 2 210 19 243 40 79 148 86 186 12 12
-23 15 -72 15 -245 l0 -215 80 0 80 0 0 200 c0 148 4 209 14 234 40 96 161
102 197 9 5 -13 9 -119 9 -234 l0 -209 80 0 80 0 0 243 c0 213 -3 247 -19 282
-59 130 -243 155 -346 49 l-41 -42 -17 29 c-33 59 -149 93 -233 68z"/>
<path d="M3869 2554 c-63 -20 -124 -74 -145 -129 -9 -25 -15 -47 -13 -49 2 -2
37 -6 77 -7 74 -4 74 -4 86 26 26 60 123 75 177 27 24 -21 32 -39 36 -74 l5
-45 -118 -5 c-101 -3 -128 -8 -175 -30 -74 -34 -102 -74 -107 -153 -5 -87 24
-141 97 -177 96 -49 207 -35 279 34 l32 32 0 -37 0 -37 73 0 72 0 -3 222 c-2
123 -7 240 -13 261 -13 50 -64 106 -118 130 -58 25 -180 31 -242 11z m221
-391 c0 -79 -58 -133 -140 -133 -80 0 -120 47 -94 109 18 43 62 60 157 61 l77
0 0 -37z"/>
<path d="M4645 2559 c-43 -16 -93 -55 -100 -79 -10 -33 -25 -12 -25 36 l0 44
-70 0 -70 0 0 -315 0 -315 74 0 75 0 3 208 c3 229 10 257 68 287 46 24 114 20
147 -9 l28 -24 3 -231 3 -231 84 0 84 0 0 183 c1 291 -16 364 -97 421 -33 23
-53 29 -109 32 -37 2 -81 -1 -98 -7z"/>
<path d="M5221 2552 c-72 -26 -102 -50 -128 -102 -37 -72 -34 -78 48 -82 63
-3 72 -1 81 17 24 47 50 65 95 65 80 0 123 -42 123 -120 l0 -28 -119 -4 c-108
-4 -125 -7 -178 -34 -79 -41 -105 -85 -101 -174 4 -82 31 -123 102 -156 92
-43 203 -27 268 38 l36 36 7 -39 7 -39 66 0 67 0 -3 222 c-1 123 -4 237 -7
254 -8 50 -61 113 -112 136 -67 29 -183 34 -252 10z m219 -389 c0 -50 -18 -82
-59 -110 -38 -25 -103 -31 -145 -12 -32 15 -48 59 -35 97 15 43 60 61 157 61
l82 1 0 -37z"/>
<path d="M5884 2554 c-60 -21 -119 -77 -151 -142 -26 -52 -28 -66 -28 -172 0
-106 2 -120 28 -172 36 -74 87 -114 172 -135 94 -23 159 -8 222 52 l45 43 -7
-61 c-3 -34 -11 -76 -16 -93 -17 -55 -85 -104 -144 -104 -44 0 -105 31 -121
61 -14 28 -17 29 -94 29 l-80 0 6 -27 c17 -72 89 -143 167 -164 67 -18 210
-13 260 9 61 27 105 68 134 126 23 44 27 70 34 191 5 77 8 236 7 353 l-1 212
-75 0 -74 0 4 -45 c2 -25 3 -45 2 -45 0 0 -20 18 -43 39 -64 59 -159 76 -247
45z m207 -129 c66 -34 93 -201 47 -293 -30 -61 -73 -85 -145 -79 -61 4 -87 23
-114 82 -21 46 -25 153 -8 206 32 94 129 131 220 84z"/>
<path d="M6640 2561 c-98 -30 -164 -95 -199 -196 -33 -91 -27 -225 12 -301 48
-94 129 -143 247 -151 123 -9 226 37 276 122 39 68 35 75 -46 75 -67 0 -71 -1
-103 -36 -26 -29 -42 -37 -79 -41 -93 -11 -151 36 -164 130 l-7 47 218 0 218
0 -7 68 c-10 104 -33 159 -86 213 -34 34 -63 52 -101 63 -55 17 -136 20 -179
7z m165 -141 c13 -12 31 -42 39 -66 l15 -44 -140 0 -140 0 7 23 c25 83 73 120
147 114 32 -3 56 -12 72 -27z"/>
</g>
</svg>
